<?xml version="1.0" encoding="UTF-8"?>
<!DOCTYPE svg PUBLIC "-//W3C//DTD SVG 1.1//EN" "http://www.w3.org/Graphics/SVG/1.1/DTD/svg11.dtd">
<!-- Creator: CorelDRAW -->
<svg xmlns="http://www.w3.org/2000/svg" xml:space="preserve" width="40mm" height="50mm" version="1.1" style="shape-rendering:geometricPrecision; text-rendering:geometricPrecision; image-rendering:optimizeQuality; fill-rule:evenodd; clip-rule:evenodd"
viewBox="0 0 3545.45 4431.82"
 xmlns:xlink="http://www.w3.org/1999/xlink"
 xmlns:xodm="http://www.corel.com/coreldraw/odm/2003">
 <defs>
  <style type="text/css">
   <![CDATA[
    .fil1 {fill:#F7DB17;fill-rule:nonzero}
    .fil0 {fill:#008CCC;fill-rule:nonzero}
   ]]>
  </style>
 </defs>
 <g id="Layer_x0020_1">
  <metadata id="CorelCorpID_0Corel-Layer"/>
  <g id="_2719075264800">
   <g>
    <path class="fil0" d="M2308.25 4182.9c-5.48,17.53 -9.49,35.03 -9.49,50.18 0,21.73 8.54,38.81 31.06,45.03 10.87,3.1 20.96,4.66 30.28,4.66 38.81,0 60.56,-25.62 75.3,-55.9 19.41,-35.71 82.3,-122.66 158.38,-158.38 22.52,-10.88 38.82,-14.75 51.24,-14.75 29.51,0 37.26,20.96 58.23,22.51l2.33 0c20.18,0 38.04,-17.86 38.04,-37.27 0,-8.54 -3.1,-16.3 -10.09,-23.28 -13.21,-13.98 -41.93,-24.84 -79.2,-24.84 -29.5,0 -63.66,6.98 -98.59,24.07 -78.42,38.03 -82.3,55.89 -82.3,55.89 0,0 10.87,-25.62 10.87,-50.47 0,-13.19 -3.1,-25.62 -11.65,-34.15 -9.32,-8.54 -24.84,-12.43 -41.15,-12.43 -31.05,0 -65.99,13.98 -68.32,37.26 0,0 -3.62,33.77 -14.68,71.71 -0.06,0.5 -0.55,0.76 -1.45,1.27 -14.39,7.93 -136.53,77.65 -182.6,77.65l-7.77 0c-41.92,0 -47.36,-30.28 -47.36,-30.28 0,0 6.99,-20.19 6.99,-44.26 0,-13.2 -2.33,-27.95 -9.32,-40.37 -9.32,-19.42 -34.93,-37.27 -67.54,-37.27 -27.17,0 -58.23,12.43 -88.5,46.59 -8.62,9.61 -16.81,19.79 -26.62,32.53 -32.24,25.68 -90.68,79.69 -142.62,87.79 -2.43,0.38 -5.44,0.78 -7.77,0.78 -21.73,0 -31.05,-18.63 -31.05,-46.58 0,-38.81 17.08,-96.27 41.92,-149.06 36.5,-77.64 91.61,-96.27 91.61,-130.43 0,-7.76 -3.1,-16.3 -9.32,-26.4 -11.65,-18.63 -26.39,-26.4 -41.93,-26.4 -31.06,0 -65.21,30.28 -86.95,62.88 -48.13,69.1 -96.26,160.72 -107.13,204.97 0,0 -30.28,-48.91 -79.19,-48.91 -16.3,0 -34.16,5.42 -54.33,19.4 -19.03,13.25 -35.71,31.76 -51.05,54.15 -36.98,36.95 -84.69,90.15 -127.5,104.22 -13.3,4.37 -22.52,6.22 -28.73,6.22 -7.77,0 -10.87,-3.11 -10.87,-7.76 0,-11.65 15.52,-34.16 28.72,-57.45 12.43,-22.51 20.96,-45.81 20.96,-65.99 0,-17.85 -6.99,-32.61 -24.06,-40.37 -10.1,-4.65 -18.63,-6.98 -27.18,-6.98 -24.06,0 -42.7,15.53 -54.34,30.28 0,0 -11.03,14.22 -26.33,36.95 -6.54,4.86 -11.69,9.22 -17.14,14.29 -20.92,19.45 -97.05,67.54 -133.54,67.54 -3.88,0 -6.98,-0.77 -10.1,-1.55 -8.54,-3.11 -11.64,-11.65 -11.64,-22.51 0,-23.28 13.97,-58.23 13.97,-77.64 0,-3.87 -0.78,-7.76 -2.33,-10.1 -6.98,-8.54 -17.85,-16.3 -31.82,-16.3 -13.21,0 -28.73,6.21 -46.59,24.06 -37.26,38.05 -79.96,89.28 -109.46,96.28 -1.56,0 -2.33,0.77 -3.89,0.77 -5.42,0 -6.98,-3.1 -6.98,-7.76 0,-17.08 24.84,-55.89 40.37,-74.53 10.1,-12.43 14.75,-24.07 14.75,-34.94 0,-13.2 -6.98,-24.84 -19.41,-34.16 -7.76,-5.43 -18.63,-8.54 -29.5,-8.54 -6.67,0 -13.78,1.09 -20.98,2.23 -5.76,-7.48 -13.67,-10.77 -24.05,-10.77 -3.88,0 -7.77,0.77 -11.65,1.54 -131.21,23.29 -444.07,350.91 -587.69,350.91 -15.53,0 -29.5,-3.88 -40.37,-12.42 -20.96,-16.3 -28.72,-44.25 -28.72,-75.31 0,-53.57 21.72,-118 33.37,-152.94 64.45,-143.63 172.36,-302 289.58,-386.63 43.48,-31.04 78.42,-44.25 104.03,-44.25 35.71,0 53.57,25.62 53.57,67.54 0,29.51 -9.32,65.99 -27.18,107.91 -6.21,13.98 -11.65,27.17 -11.65,38.81 0,9.32 4.65,17.86 16.3,22.52 6.21,3.11 13.21,3.88 20.19,3.88 18.63,0 37.26,-10.87 45.02,-29.5 23.29,-58.23 34.17,-112.58 34.17,-158.38 0,-100.15 -50.47,-163.82 -134.31,-163.82 -48.13,0 -107.13,20.96 -173.12,68.32 -137.42,97.04 -309.77,319.08 -361.01,479.79 -13.2,39.59 -19.4,76.08 -19.4,108.69 0,135.08 101.7,208.85 215.82,208.85 27.95,0 57.45,-3.89 85.39,-13.21 145.27,-46.59 334.66,-263.11 443.94,-327.72 -16.17,28.98 -34.02,67.09 -34.02,97.92 0,13.2 3.09,24.84 10.86,34.16 16.31,20.19 35.72,27.18 55.12,27.18 33.38,0 69.87,-22.52 100.93,-38.04 31.05,-17.09 48.91,-31.06 59.01,-31.06 5.42,0 8.54,3.89 10.86,13.97 6.21,20.19 31.83,48.15 76.09,48.15 14.75,0 31.84,-3.11 50.47,-10.1 26.5,-11 54.65,-28.77 81.21,-50.05 -0.24,7.84 -2.02,17.43 -2.02,26.76 0,20.96 6.2,39.59 22.5,54.35 16.31,14.74 38.04,20.95 62.11,20.95 49.28,0 111.35,-26.97 172.82,-77.34 1.07,29.99 11.95,58.71 37.56,71.91 12.42,6.98 24.84,10.1 37.27,10.1 61.32,0 121.1,-72.2 159.14,-115.68 0,0 -1.54,6.21 -1.54,14.75 0,21.74 9.32,59.78 72.19,72.2 7.77,1.55 15.53,2.33 24.07,2.33 44.04,0 90.49,-23.36 130.94,-59.71 -1.05,7.23 -2.07,15.98 -2.07,23.99 0,19.41 5.42,34.17 18.63,41.93 6.98,4.65 15.52,6.21 24.84,6.21 46.59,0 114.13,-52.01 144.41,-80.75 0,0 8.54,45.04 77.64,59.79 4.65,0.77 9.32,1.55 13.97,1.55 47.29,0 112.29,-39.82 160.1,-73.46zm-774.81 -113.33c11.97,-7.43 24.22,-9.64 34.28,-5.13l0.34 0 2.19 1.29c10.46,6.15 15.27,18.68 14.59,33.96 -0.75,16.82 -6.8,30.23 -14.6,44.79 -8.91,15.01 -20.24,26.77 -31.4,33.7 -11.97,7.43 -24.22,9.64 -34.28,5.13l-0.32 0 -2.21 -1.29c-10.46,-6.16 -15.27,-18.68 -14.59,-33.96 0.6,-13.28 5.44,-29.11 14.32,-44.28l0.27 -0.51c8.91,-15 20.24,-26.77 31.4,-33.7zm465.48 0c11.97,-7.43 24.22,-9.64 34.28,-5.13l0.33 0 2.19 1.29c10.47,6.15 15.28,18.68 14.59,33.96 -0.59,13.28 -5.43,29.1 -14.32,44.27l-0.27 0.51c-8.9,15.01 -20.24,26.77 -31.4,33.7 -11.97,7.43 -24.22,9.64 -34.28,5.13l-0.32 0 -2.2 -1.29c-10.47,-6.16 -15.28,-18.68 -14.59,-33.96 0.59,-13.28 5.43,-29.11 14.32,-44.28l0.27 -0.51c8.9,-15 20.24,-26.77 31.4,-33.7zm-656.62 -188.96c-18.63,0 -33.38,14.76 -33.38,33.39 0,18.63 14.75,33.39 33.38,33.39 17.86,0 32.61,-14.76 32.61,-33.39 0,-18.63 -14.75,-33.39 -32.61,-33.39z"/>
    <path class="fil1" d="M3260.6 4295.88c-11.1,18.5 -24.64,27.74 -40.68,27.74 -16.03,0 -28.99,-5.25 -38.85,-15.73 -9.87,-10.46 -14.81,-22.19 -14.81,-35.13 0,-12.96 4.94,-34.23 14.81,-63.81 17.27,-50.58 28.98,-112.23 35.14,-184.98 -14.79,-1.24 -40.07,-1.85 -75.83,-1.85 -35.76,0 -65.67,1.85 -89.7,5.55 -24.06,3.71 -37.32,5.55 -39.78,5.55 -29.59,0 -44.4,-11.1 -44.4,-33.3 0,-16.03 6.8,-30.82 20.36,-44.39 13.57,-13.56 24.67,-20.34 33.3,-20.34 8.62,0 17.87,0.61 27.74,1.86 39.45,4.92 98.63,7.38 177.57,7.38 11.1,-99.88 16.65,-163.38 16.65,-190.5 0,-27.13 6.16,-47.16 18.48,-60.12 12.35,-12.96 22.19,-19.42 29.6,-19.42 11.1,0 16.65,51.16 16.65,153.51 0,28.36 -1.22,67.2 -3.7,116.53 90.01,0 147.35,-3.69 172.02,-11.1l49.94 -16.65c13.57,0 20.34,9.56 20.34,28.68 0,19.09 -6.47,38.51 -19.42,58.26 -12.96,19.73 -28.67,29.59 -47.16,29.59 -65.34,0 -125.16,-1.22 -179.43,-3.7 -14.78,159.07 -27.74,247.85 -38.84,266.35z"/>
   </g>
   <path class="fil0" d="M942.62 2410.21c4.48,-5.5 9.27,-10.34 14.56,-14.58 15.17,-12.12 32.81,-18.21 55.78,-18.21 25.63,0 48.87,10.41 65.67,27.21 16.81,16.8 27.21,40.04 27.21,65.68 0,40.67 -19.42,80.15 -48.54,118.96 -27.71,36.94 -63.22,72.45 -98.71,107.95 -9.65,10.51 -23.58,10.4 -31.92,0 -35.5,-35.5 -71,-71.01 -98.71,-107.95 -29.12,-38.81 -48.53,-78.29 -48.53,-118.96 0,-25.64 10.41,-48.88 27.2,-65.68 16.81,-16.8 40.04,-27.21 65.67,-27.21 22.97,0 40.63,6.09 55.79,18.21 5.27,4.22 10.04,9.06 14.52,14.58zm350.04 -894.34l488.47 -326.63c16.75,-14.09 29.86,-13.57 47.12,0 126.37,83.6 252.74,167.19 379.11,250.81l0 -119.93c-0.29,-57.92 111.05,-55 111.6,0l0 192.39c63.46,41.41 126.79,83.05 190.19,124.58 25.65,20.59 25.62,56.83 0.61,76.44 -32.31,25.36 -58.43,-2.8 -83.55,-12.52l-0.54 337.16c117.9,-167.3 189.35,-386.51 189.35,-626.76 0,-310.33 -26.01,-248.9 -299.67,-297.39 -154.69,-27.41 -309.47,-54.83 -464.41,-54.14 -155.26,0.7 -309.94,29.55 -464.47,58.36 -267.94,49.94 -292.05,-9.78 -292.05,293.17 0,223.95 62.08,429.6 165.98,591.99l0 -352.18c-51.79,20.4 -72.42,-32.65 -63.19,-62.21 7.43,-23.71 70.77,-56.41 95.46,-73.15zm1012.49 305.35c0,53.99 -55.12,95.36 -102.55,63.53 -11.46,20.15 -24.2,30.94 -33.53,49.1 73.63,10.19 154.32,86.15 159.81,88.45l0.04 -388.14 -526.87 -342.88 -444.87 297.69c0,123.37 0,246.75 0,370.12 16.89,-7.8 47.54,-25.7 78.3,-28.5 -72.86,-64.77 -78.3,-156.56 -39.4,-231.3 67.25,-131.74 295.04,-116.22 341.23,45.8 30.82,108.04 -21.58,181.79 -78.4,216.02 84,34.25 87.49,84.15 134.84,128.41 19.26,-17.88 47.82,-90.34 134.43,-128.55 -65.55,-50.67 -101.98,-142.61 -75.56,-224.93 52.19,-162.9 338.33,-162.61 368.94,12.98 45.58,-12.31 83.59,27.72 83.59,72.22zm-1544.15 -1551.84c147.77,-27.75 267.21,-70.69 414.47,-119.1 223.78,-73.58 448.11,-147.35 678.58,-150.19 234.16,-2.91 463.34,73.97 692.18,150.72 142.91,47.93 261.17,90.83 404.65,118.99 6.94,1.43 33.38,4.02 21.24,41.58l-326.03 800.04c23.79,94.84 36.62,195.6 36.62,300 0,279.41 -91.77,532.75 -240.14,716.45 -144.31,178.68 -342.1,291.8 -561.63,300.18 -7.54,148.32 -15.69,295.2 -31.18,424.35 -17.29,144.21 -44,268.74 -89.47,353.79 -4.62,8.65 -9.5,16.98 -14.6,24.99 -46.79,73.42 -108.77,112.23 -175.41,124.22 -65.52,11.8 -134.6,-2.9 -197.18,-36.34 -8.76,-4.68 -17.5,-9.8 -26.15,-15.31 -65.72,-41.89 -121.67,-104.09 -172.7,-176.42 -47.36,-67.12 -90.36,-142.6 -133.11,-218.46 -31.49,8.49 -63.58,13.11 -94.64,13.11 -105.94,0 -201.86,-42.95 -271.29,-112.36 -69.43,-69.43 -112.36,-165.35 -112.36,-271.28 0,-105.94 42.94,-201.86 112.36,-271.28 69.43,-69.44 165.35,-112.37 271.29,-112.37 105.93,0 201.85,42.94 271.28,112.37 69.4,69.42 112.36,165.34 112.36,271.28 0,105.93 -42.96,201.85 -112.36,271.28 -30.74,30.72 -69.67,56.79 -112.11,76.04 40.13,71.11 80.54,141.43 123.85,202.81 46.54,65.96 96.61,122.07 153.67,158.44 7.01,4.46 14.25,8.71 21.65,12.66 49.75,26.58 103.62,38.44 153.54,29.46 48.81,-8.78 94.82,-38.14 130.46,-94.06 4.07,-6.38 8.07,-13.24 11.94,-20.49 40.82,-76.35 65.38,-193.09 81.79,-329.99 15.37,-128.08 23.44,-271.93 30.82,-417.15 -213.51,-12.87 -405.56,-124.86 -546.55,-299.44 -148.36,-183.7 -240.15,-437.04 -240.15,-716.45 0,-104.05 12.74,-204.48 36.38,-299.04 -112.12,-275.13 -211.02,-517.8 -323.14,-792.92 -23.57,-48.12 14.11,-48.31 21.08,-50.06zm361.03 2093.38c-44.91,-44.91 -107,-72.7 -175.54,-72.7 -68.55,0 -130.63,27.79 -175.55,72.7 -44.9,44.91 -72.7,107 -72.7,175.54 0,68.53 27.8,130.62 72.7,175.54 44.93,44.91 107,72.71 175.55,72.71 68.53,0 130.61,-27.8 175.54,-72.71 44.91,-44.92 72.7,-107 72.7,-175.54 0,-68.54 -27.79,-130.62 -72.7,-175.54zm654.54 -2194.45l0 234.02 -262.92 0 -0.21 170.69 263.13 0 0 244.82 169.26 -3.13 0 -241.69 248.33 0 -3.58 -170.69 -244.75 0 0 -234.02 -169.26 0z"/>
  </g>
 </g>
</svg>