<?xml version="1.0" encoding="UTF-8"?>
<!DOCTYPE svg PUBLIC "-//W3C//DTD SVG 1.1//EN" "http://www.w3.org/Graphics/SVG/1.1/DTD/svg11.dtd">
<!-- Creator: CorelDRAW -->
<svg xmlns="http://www.w3.org/2000/svg" xml:space="preserve" width="8.26772in" height="11.6929in" version="1.1" style="shape-rendering:geometricPrecision; text-rendering:geometricPrecision; image-rendering:optimizeQuality; fill-rule:evenodd; clip-rule:evenodd"
viewBox="0 0 8267.72 11692.91"
 xmlns:xlink="http://www.w3.org/1999/xlink"
 xmlns:xodm="http://www.corel.com/coreldraw/odm/2003">
 <defs>
  <style type="text/css">
   <![CDATA[
    .fil0 {fill:#D42E12}
   ]]>
  </style>
 </defs>
 <g id="Layer_x0020_1">
  <metadata id="CorelCorpID_0Corel-Layer"/>
  <path class="fil0" d="M3447.03 4531.09c-20.78,-0.81 -14.19,-23.33 0,-22.97 15.14,0.39 19.31,23.74 0,22.97zm-98.65 -4.81c-16.93,-0.38 -18.78,-18.07 1.83,-23.23 18,-4.51 22.74,23.78 -1.83,23.23zm134.2 -12.02c-10.49,-13.19 6.32,-23.34 16.54,-12.62 12.58,13.22 -6.89,24.78 -16.54,12.62zm-67.71 -17.56c-25.76,2 -20.25,-21.93 -1.08,-24.74 17.85,-2.62 25.24,22.85 1.08,24.74zm131.87 36.94c7.04,3.77 9.14,6.95 11.91,14.53 -51.02,41.68 -273.58,63.2 -310.04,-11.24 -14.6,3.66 -21.63,5.83 -19.07,33.73 0.96,10.5 4.15,7.51 4.45,20.61 3.91,53.96 51.94,100 99.11,118.98l2.51 28.06c19.31,14.44 115.59,16.53 139.96,-0.63l1.57 -29.91c69.53,-38.55 110.41,-76.78 108.33,-166.39 -6.33,-7.24 -22.86,-20.38 -31.87,-19.48 -39.46,0.13 -23.95,-33.3 -54.54,-48.35 -7.81,-3.85 -22.74,-3.81 -31.44,-4.98 -6.35,-5.23 -10.64,-13.02 -19.89,-16.66l-14.32 -4.61c-5.13,-1.62 -12.27,-1.46 -17.79,-1.46 -29.19,0.01 -30.14,9.69 -48.35,25.64 -15.34,-0.13 -27.3,-2.01 -39.14,8.19 -12.78,11.02 -9.47,16.68 -16.7,29.7 -29.67,4.4 -23.08,9.57 -30.82,17.59 -5.77,5.98 -5.31,1.35 -4.62,12.49 129.95,49.14 223.22,6.38 270.7,-5.85l0 0.02z"/>
 </g>
</svg>
